<mxfile host="app.diagrams.net" modified="2022-03-03T17:11:15.997Z" agent="5.0 (X11; Linux x86_64) AppleWebKit/537.36 (KHTML, like Gecko) Chrome/98.0.4758.102 Safari/537.36" etag="NhPiapaZB1k1UCSZqPtS" version="16.6.2" type="github">
  <diagram id="eiv23p6lr9HVx8hh9ZeK" name="Page-1">
    <mxGraphModel dx="1097" dy="491" grid="1" gridSize="10" guides="1" tooltips="1" connect="1" arrows="1" fold="1" page="1" pageScale="1" pageWidth="1169" pageHeight="827" math="0" shadow="0">
      <root>
        <mxCell id="0" />
        <mxCell id="1" parent="0" />
        <mxCell id="TkSJE-_agVQTAw1Jts01-76" value="" style="rounded=1;whiteSpace=wrap;html=1;fillColor=#FFE6CC;" vertex="1" parent="1">
          <mxGeometry x="373.75" y="70" width="252.5" height="290" as="geometry" />
        </mxCell>
        <mxCell id="TkSJE-_agVQTAw1Jts01-38" value="" style="group" vertex="1" connectable="0" parent="1">
          <mxGeometry x="460" y="80" width="80" height="20" as="geometry" />
        </mxCell>
        <mxCell id="TkSJE-_agVQTAw1Jts01-7" value="SqlNode" style="rounded=0;whiteSpace=wrap;html=1;fillColor=#FFF2CC;align=right;" vertex="1" parent="TkSJE-_agVQTAw1Jts01-38">
          <mxGeometry width="80" height="20" as="geometry" />
        </mxCell>
        <mxCell id="TkSJE-_agVQTAw1Jts01-10" value="C" style="ellipse;whiteSpace=wrap;html=1;aspect=fixed;fillColor=#9AC7BF;" vertex="1" parent="TkSJE-_agVQTAw1Jts01-38">
          <mxGeometry x="4" y="2" width="15" height="15" as="geometry" />
        </mxCell>
        <mxCell id="TkSJE-_agVQTAw1Jts01-39" value="" style="group" vertex="1" connectable="0" parent="1">
          <mxGeometry x="400" y="120" width="80" height="20" as="geometry" />
        </mxCell>
        <mxCell id="TkSJE-_agVQTAw1Jts01-40" value="SqlCall" style="rounded=0;whiteSpace=wrap;html=1;fillColor=#FFF2CC;align=right;" vertex="1" parent="TkSJE-_agVQTAw1Jts01-39">
          <mxGeometry width="80" height="20" as="geometry" />
        </mxCell>
        <mxCell id="TkSJE-_agVQTAw1Jts01-41" value="C" style="ellipse;whiteSpace=wrap;html=1;aspect=fixed;fillColor=#9AC7BF;" vertex="1" parent="TkSJE-_agVQTAw1Jts01-39">
          <mxGeometry x="4.571428571428571" y="2" width="15" height="15" as="geometry" />
        </mxCell>
        <mxCell id="TkSJE-_agVQTAw1Jts01-42" value="" style="group" vertex="1" connectable="0" parent="1">
          <mxGeometry x="400" y="200" width="80" height="20" as="geometry" />
        </mxCell>
        <mxCell id="TkSJE-_agVQTAw1Jts01-43" value="SqlCreate" style="rounded=0;whiteSpace=wrap;html=1;fillColor=#FFF2CC;align=right;" vertex="1" parent="TkSJE-_agVQTAw1Jts01-42">
          <mxGeometry width="80" height="20" as="geometry" />
        </mxCell>
        <mxCell id="TkSJE-_agVQTAw1Jts01-44" value="C" style="ellipse;whiteSpace=wrap;html=1;aspect=fixed;fillColor=#9AC7BF;" vertex="1" parent="TkSJE-_agVQTAw1Jts01-42">
          <mxGeometry x="4.571428571428571" y="2" width="15" height="15" as="geometry" />
        </mxCell>
        <mxCell id="TkSJE-_agVQTAw1Jts01-45" value="" style="group" vertex="1" connectable="0" parent="1">
          <mxGeometry x="400" y="160" width="80" height="20" as="geometry" />
        </mxCell>
        <mxCell id="TkSJE-_agVQTAw1Jts01-46" value="SqlAlter" style="rounded=0;whiteSpace=wrap;html=1;fillColor=#FFF2CC;align=right;" vertex="1" parent="TkSJE-_agVQTAw1Jts01-45">
          <mxGeometry width="80" height="20" as="geometry" />
        </mxCell>
        <mxCell id="TkSJE-_agVQTAw1Jts01-47" value="C" style="ellipse;whiteSpace=wrap;html=1;aspect=fixed;fillColor=#9AC7BF;" vertex="1" parent="TkSJE-_agVQTAw1Jts01-45">
          <mxGeometry x="4.571428571428571" y="2" width="15" height="15" as="geometry" />
        </mxCell>
        <mxCell id="TkSJE-_agVQTAw1Jts01-48" value="" style="group" vertex="1" connectable="0" parent="1">
          <mxGeometry x="400" y="240" width="80" height="20" as="geometry" />
        </mxCell>
        <mxCell id="TkSJE-_agVQTAw1Jts01-49" value="SqlDdl" style="rounded=0;whiteSpace=wrap;html=1;fillColor=#FFF2CC;align=right;" vertex="1" parent="TkSJE-_agVQTAw1Jts01-48">
          <mxGeometry width="80" height="20" as="geometry" />
        </mxCell>
        <mxCell id="TkSJE-_agVQTAw1Jts01-50" value="C" style="ellipse;whiteSpace=wrap;html=1;aspect=fixed;fillColor=#9AC7BF;" vertex="1" parent="TkSJE-_agVQTAw1Jts01-48">
          <mxGeometry x="4.571428571428571" y="2" width="15" height="15" as="geometry" />
        </mxCell>
        <mxCell id="TkSJE-_agVQTAw1Jts01-51" value="" style="group" vertex="1" connectable="0" parent="1">
          <mxGeometry x="400" y="320" width="80" height="20" as="geometry" />
        </mxCell>
        <mxCell id="TkSJE-_agVQTAw1Jts01-52" value="SqlExplain" style="rounded=0;whiteSpace=wrap;html=1;fillColor=#FFF2CC;align=right;" vertex="1" parent="TkSJE-_agVQTAw1Jts01-51">
          <mxGeometry width="80" height="20" as="geometry" />
        </mxCell>
        <mxCell id="TkSJE-_agVQTAw1Jts01-53" value="C" style="ellipse;whiteSpace=wrap;html=1;aspect=fixed;fillColor=#9AC7BF;" vertex="1" parent="TkSJE-_agVQTAw1Jts01-51">
          <mxGeometry x="4.571428571428571" y="2" width="15" height="15" as="geometry" />
        </mxCell>
        <mxCell id="TkSJE-_agVQTAw1Jts01-54" value="" style="group" vertex="1" connectable="0" parent="1">
          <mxGeometry x="400" y="280" width="80" height="20" as="geometry" />
        </mxCell>
        <mxCell id="TkSJE-_agVQTAw1Jts01-55" value="SqlDrop" style="rounded=0;whiteSpace=wrap;html=1;fillColor=#FFF2CC;align=right;" vertex="1" parent="TkSJE-_agVQTAw1Jts01-54">
          <mxGeometry width="80" height="20" as="geometry" />
        </mxCell>
        <mxCell id="TkSJE-_agVQTAw1Jts01-56" value="C" style="ellipse;whiteSpace=wrap;html=1;aspect=fixed;fillColor=#9AC7BF;" vertex="1" parent="TkSJE-_agVQTAw1Jts01-54">
          <mxGeometry x="4.571428571428571" y="2" width="15" height="15" as="geometry" />
        </mxCell>
        <mxCell id="TkSJE-_agVQTAw1Jts01-57" value="" style="group" vertex="1" connectable="0" parent="1">
          <mxGeometry x="520" y="120" width="80" height="20" as="geometry" />
        </mxCell>
        <mxCell id="TkSJE-_agVQTAw1Jts01-58" value="SqlHint" style="rounded=0;whiteSpace=wrap;html=1;fillColor=#FFF2CC;align=right;" vertex="1" parent="TkSJE-_agVQTAw1Jts01-57">
          <mxGeometry width="80" height="20" as="geometry" />
        </mxCell>
        <mxCell id="TkSJE-_agVQTAw1Jts01-59" value="C" style="ellipse;whiteSpace=wrap;html=1;aspect=fixed;fillColor=#9AC7BF;" vertex="1" parent="TkSJE-_agVQTAw1Jts01-57">
          <mxGeometry x="4.571428571428571" y="2" width="15" height="15" as="geometry" />
        </mxCell>
        <mxCell id="TkSJE-_agVQTAw1Jts01-60" value="" style="group" vertex="1" connectable="0" parent="1">
          <mxGeometry x="520" y="160" width="80" height="20" as="geometry" />
        </mxCell>
        <mxCell id="TkSJE-_agVQTAw1Jts01-61" value="SqlInsert" style="rounded=0;whiteSpace=wrap;html=1;fillColor=#FFF2CC;align=right;" vertex="1" parent="TkSJE-_agVQTAw1Jts01-60">
          <mxGeometry width="80" height="20" as="geometry" />
        </mxCell>
        <mxCell id="TkSJE-_agVQTAw1Jts01-62" value="C" style="ellipse;whiteSpace=wrap;html=1;aspect=fixed;fillColor=#9AC7BF;" vertex="1" parent="TkSJE-_agVQTAw1Jts01-60">
          <mxGeometry x="4.571428571428571" y="2" width="15" height="15" as="geometry" />
        </mxCell>
        <mxCell id="TkSJE-_agVQTAw1Jts01-63" value="" style="group" vertex="1" connectable="0" parent="1">
          <mxGeometry x="520" y="200" width="80" height="20" as="geometry" />
        </mxCell>
        <mxCell id="TkSJE-_agVQTAw1Jts01-64" value="SqlJoin" style="rounded=0;whiteSpace=wrap;html=1;fillColor=#FFF2CC;align=right;" vertex="1" parent="TkSJE-_agVQTAw1Jts01-63">
          <mxGeometry width="80" height="20" as="geometry" />
        </mxCell>
        <mxCell id="TkSJE-_agVQTAw1Jts01-65" value="C" style="ellipse;whiteSpace=wrap;html=1;aspect=fixed;fillColor=#9AC7BF;" vertex="1" parent="TkSJE-_agVQTAw1Jts01-63">
          <mxGeometry x="4.571428571428571" y="2" width="15" height="15" as="geometry" />
        </mxCell>
        <mxCell id="TkSJE-_agVQTAw1Jts01-66" value="" style="group" vertex="1" connectable="0" parent="1">
          <mxGeometry x="520" y="240" width="80" height="20" as="geometry" />
        </mxCell>
        <mxCell id="TkSJE-_agVQTAw1Jts01-67" value="SqlSelect" style="rounded=0;whiteSpace=wrap;html=1;fillColor=#FFF2CC;align=right;" vertex="1" parent="TkSJE-_agVQTAw1Jts01-66">
          <mxGeometry width="80" height="20" as="geometry" />
        </mxCell>
        <mxCell id="TkSJE-_agVQTAw1Jts01-68" value="C" style="ellipse;whiteSpace=wrap;html=1;aspect=fixed;fillColor=#9AC7BF;" vertex="1" parent="TkSJE-_agVQTAw1Jts01-66">
          <mxGeometry x="4.571428571428571" y="2" width="15" height="15" as="geometry" />
        </mxCell>
        <mxCell id="TkSJE-_agVQTAw1Jts01-69" value="" style="group" vertex="1" connectable="0" parent="1">
          <mxGeometry x="520" y="280" width="80" height="20" as="geometry" />
        </mxCell>
        <mxCell id="TkSJE-_agVQTAw1Jts01-70" value="SqlUpdate" style="rounded=0;whiteSpace=wrap;html=1;fillColor=#FFF2CC;align=right;" vertex="1" parent="TkSJE-_agVQTAw1Jts01-69">
          <mxGeometry width="80" height="20" as="geometry" />
        </mxCell>
        <mxCell id="TkSJE-_agVQTAw1Jts01-71" value="C" style="ellipse;whiteSpace=wrap;html=1;aspect=fixed;fillColor=#9AC7BF;" vertex="1" parent="TkSJE-_agVQTAw1Jts01-69">
          <mxGeometry x="4.571428571428571" y="2" width="15" height="15" as="geometry" />
        </mxCell>
        <mxCell id="TkSJE-_agVQTAw1Jts01-73" value="" style="group" vertex="1" connectable="0" parent="1">
          <mxGeometry x="520" y="320" width="80" height="20" as="geometry" />
        </mxCell>
        <mxCell id="TkSJE-_agVQTAw1Jts01-74" value="SqlWith" style="rounded=0;whiteSpace=wrap;html=1;fillColor=#FFF2CC;align=right;" vertex="1" parent="TkSJE-_agVQTAw1Jts01-73">
          <mxGeometry width="80" height="20" as="geometry" />
        </mxCell>
        <mxCell id="TkSJE-_agVQTAw1Jts01-75" value="C" style="ellipse;whiteSpace=wrap;html=1;aspect=fixed;fillColor=#9AC7BF;" vertex="1" parent="TkSJE-_agVQTAw1Jts01-73">
          <mxGeometry x="4.571428571428571" y="2" width="15" height="15" as="geometry" />
        </mxCell>
      </root>
    </mxGraphModel>
  </diagram>
</mxfile>
